<svg id="_Group_" xmlns="http://www.w3.org/2000/svg" width="163.246" height="31.623" viewBox="0 0 163.246 31.623">
  <path id="_Path_" d="M12.787,4.977c-1.914,0-2.489.842-2.489,2.718v3.1h5.13l-.5,5.054H10.3V31.125H4.135V15.85H0V10.835H4.135V7.81C4.135,2.68,6.2,0,11.907,0a28.391,28.391,0,0,1,3.6.23V4.977" fill="#cbcbcb"/>
  <path id="_Compound_Path_" d="M41.338,37.054c0-5.666,2.68-9.954,8.346-9.954a6.057,6.057,0,0,1,5.858,3.56v-3.1h5.9V47.889H55.5V44.826a5.986,5.986,0,0,1-5.858,3.484c-5.628,0-8.346-4.25-8.346-9.954m6.2.077c0,3.024,1.11,5.054,3.982,5.054,2.527,0,3.79-1.838,3.79-4.747V36.671c0-2.91-1.3-4.747-3.79-4.747-2.871,0-3.982,1.991-3.982,5.054v1.455Z" transform="translate(-25.488 -16.725)" fill="#cbcbcb"/>
  <path id="_Path_2" d="M110.39,27.1a11,11,0,0,1,5.9,1.378l-1.378,4.364a9.426,9.426,0,0,0-4.1-.919c-3.331,0-4.786,1.914-4.786,5.207v1.187c0,3.292,1.455,5.207,4.786,5.207a9.462,9.462,0,0,0,4.1-.957l1.378,4.364a11.258,11.258,0,0,1-5.9,1.378c-7.236,0-10.49-3.867-10.49-10.107v-.957c0-6.24,3.254-10.145,10.49-10.145" transform="translate(-61.654 -16.725)" fill="#cbcbcb"/>
  <path id="_Compound_Path_2" d="M144.8,38.471v-1.8c0-5.781,3.292-9.571,9.992-9.571,6.317,0,9.112,3.828,9.112,9.495v3.254h-12.94c.115,2.795,1.378,4.02,4.786,4.02a18.376,18.376,0,0,0,6.547-1.225l1.11,4.211a19.917,19.917,0,0,1-7.887,1.493c-7.81-.038-10.72-3.905-10.72-9.877m6.164-2.68h7.427v-.5c0-2.221-.881-3.982-3.6-3.982-2.757,0-3.828,1.761-3.828,4.479" transform="translate(-89.364 -16.725)" fill="#cbcbcb"/>
  <path id="_Compound_Path_3" d="M221.653,21.754c0,5.666-2.718,9.954-8.384,9.954-3.063,0-5.207-1.531-6.049-3.484v3.063H201.4V.736L207.564.2V13.791a6.135,6.135,0,0,1,5.743-3.254c5.628,0,8.384,4.25,8.384,9.954m-6.2-.153c0-2.871-1.11-5.015-4.058-5.015-2.527,0-3.867,1.8-3.867,4.709v2.144c0,2.91,1.378,4.709,3.867,4.709,2.948,0,4.058-2.144,4.058-5.015Z" transform="translate(-124.295 -0.123)" fill="#cbcbcb"/>
  <path id="_Compound_Path_4" d="M259.6,38.2V37.169c0-5.858,3.331-10.069,10.107-10.069s10.107,4.211,10.107,10.069V38.2c0,5.858-3.331,10.069-10.107,10.069S259.6,44.1,259.6,38.2m14.089-1.455c0-2.68-1.11-4.824-3.982-4.824s-3.982,2.144-3.982,4.824v1.914c0,2.68,1.11,4.824,3.982,4.824s3.982-2.144,3.982-4.824Z" transform="translate(-160.213 -16.725)" fill="#cbcbcb"/>
  <path id="_Compound_Path_5" d="M317.9,38.2V37.169c0-5.858,3.331-10.069,10.107-10.069s10.107,4.211,10.107,10.069V38.2c0,5.858-3.331,10.069-10.107,10.069S317.9,44.1,317.9,38.2m14.089-1.455c0-2.68-1.11-4.824-3.982-4.824s-3.982,2.144-3.982,4.824v1.914c0,2.68,1.11,4.824,3.982,4.824s3.982-2.144,3.982-4.824Z" transform="translate(-196.193 -16.725)" fill="#cbcbcb"/>
  <path id="_Path_3" d="M382.926,20.582l6.087-9.724h6.508l-6.355,10.069,6.623,10.3h-6.547l-6.317-9.954v9.954H376.8V.674L382.926.1" transform="translate(-232.543 -0.062)" fill="#cbcbcb"/>
</svg>
