<svg id="microsoft" xmlns="http://www.w3.org/2000/svg" width="195.302" height="41.695" viewBox="0 0 195.302 41.695">
  <path id="Path_16" data-name="Path 16" d="M427.926,46.846V43.411H423.66v-5.34l-.144.044-4.006,1.226-.079.024v4.046h-6.323V41.157a3.58,3.58,0,0,1,.7-2.388,2.459,2.459,0,0,1,1.954-.8,4.553,4.553,0,0,1,1.854.422l.157.07V34.846l-.074-.027a7.225,7.225,0,0,0-2.369-.316,6.944,6.944,0,0,0-3.36.807,5.744,5.744,0,0,0-2.306,2.28,6.8,6.8,0,0,0-.817,3.344v2.478h-2.97v3.435h2.97v14.47h4.264V46.846h6.323v9.2c0,3.787,1.786,5.706,5.309,5.706a8.709,8.709,0,0,0,1.81-.2,5,5,0,0,0,1.319-.418l.056-.033V57.629l-.173.115a2.985,2.985,0,0,1-.857.374,3.257,3.257,0,0,1-.842.143,2.284,2.284,0,0,1-1.815-.661,3.56,3.56,0,0,1-.578-2.3V46.846ZM396.354,58.261a4.523,4.523,0,0,1-3.627-1.524,6.472,6.472,0,0,1-1.3-4.3,6.727,6.727,0,0,1,1.3-4.418,4.451,4.451,0,0,1,3.592-1.548,4.383,4.383,0,0,1,3.5,1.48,6.6,6.6,0,0,1,1.277,4.382,7.032,7.032,0,0,1-1.2,4.437,4.276,4.276,0,0,1-3.539,1.5m.19-15.281a9.351,9.351,0,0,0-6.969,2.571,9.642,9.642,0,0,0-2.518,7.019,9.131,9.131,0,0,0,2.458,6.7,8.917,8.917,0,0,0,6.6,2.476,9.1,9.1,0,0,0,6.831-2.607,9.615,9.615,0,0,0,2.518-6.949A9.38,9.38,0,0,0,403.1,45.44a8.7,8.7,0,0,0-6.555-2.46m-16.361,0a7.707,7.707,0,0,0-4.939,1.527,4.87,4.87,0,0,0-1.924,3.972,5.558,5.558,0,0,0,.415,2.22,4.46,4.46,0,0,0,1.274,1.664,11.088,11.088,0,0,0,2.591,1.45,19.313,19.313,0,0,1,2.155,1,3,3,0,0,1,.949.779,1.75,1.75,0,0,1,.264,1.015c0,1.2-.9,1.788-2.754,1.788a7.572,7.572,0,0,1-2.331-.427,8.756,8.756,0,0,1-2.387-1.21l-.177-.127v4.1l.065.03a10.561,10.561,0,0,0,2.26.7,12.124,12.124,0,0,0,2.414.279,8.184,8.184,0,0,0,5.215-1.535,4.966,4.966,0,0,0,1.942-4.067,4.677,4.677,0,0,0-1.045-3.076,8.954,8.954,0,0,0-3.549-2.26,9.15,9.15,0,0,1-2.529-1.315,1.84,1.84,0,0,1-.51-1.379,1.537,1.537,0,0,1,.647-1.276,2.908,2.908,0,0,1,1.814-.512,7.427,7.427,0,0,1,2.16.332,6.941,6.941,0,0,1,1.886.875l.174.119V43.76l-.067-.029a9.3,9.3,0,0,0-1.915-.534,11.693,11.693,0,0,0-2.1-.217M362.2,58.261a4.523,4.523,0,0,1-3.627-1.524,6.47,6.47,0,0,1-1.3-4.3,6.726,6.726,0,0,1,1.3-4.418,4.449,4.449,0,0,1,3.592-1.548,4.384,4.384,0,0,1,3.5,1.48,6.594,6.594,0,0,1,1.277,4.382,7.032,7.032,0,0,1-1.2,4.437,4.275,4.275,0,0,1-3.539,1.5m.19-15.281a9.349,9.349,0,0,0-6.969,2.571,9.642,9.642,0,0,0-2.519,7.019,9.129,9.129,0,0,0,2.459,6.7,8.917,8.917,0,0,0,6.6,2.476,9.1,9.1,0,0,0,6.832-2.607,9.617,9.617,0,0,0,2.518-6.949,9.379,9.379,0,0,0-2.362-6.751,8.7,8.7,0,0,0-6.555-2.46m-15.96,3.532v-3.1h-4.212v17.9h4.212V52.156a6.383,6.383,0,0,1,1.05-3.8,3.22,3.22,0,0,1,2.724-1.439,4.945,4.945,0,0,1,1.266.186,3.2,3.2,0,0,1,.982.4l.177.128V43.38l-.068-.029a4.36,4.36,0,0,0-1.649-.251,4.316,4.316,0,0,0-2.817,1.01,5.7,5.7,0,0,0-1.62,2.4ZM334.681,42.98a10.4,10.4,0,0,0-5.121,1.231,8.3,8.3,0,0,0-3.378,3.473,11.063,11.063,0,0,0-1.16,5.145,9.492,9.492,0,0,0,1.128,4.612,7.924,7.924,0,0,0,3.151,3.186,9.381,9.381,0,0,0,4.6,1.119,10.081,10.081,0,0,0,5.08-1.189l.055-.032V56.668l-.177.129a7.917,7.917,0,0,1-2.06,1.073,6.226,6.226,0,0,1-2.018.391,5.186,5.186,0,0,1-3.942-1.537,5.977,5.977,0,0,1-1.454-4.258A6.2,6.2,0,0,1,330.9,48.1a5.158,5.158,0,0,1,3.95-1.63,6.764,6.764,0,0,1,4.009,1.394l.177.128V43.924l-.057-.032a6.95,6.95,0,0,0-1.948-.659,11.639,11.639,0,0,0-2.354-.253m-12.56.432H317.91v17.9h4.212Zm-2.063-7.627a2.537,2.537,0,0,0-1.794.7,2.322,2.322,0,0,0-.752,1.756,2.256,2.256,0,0,0,.744,1.722,2.565,2.565,0,0,0,1.8.686,2.6,2.6,0,0,0,1.81-.685,2.247,2.247,0,0,0,.753-1.723,2.366,2.366,0,0,0-.733-1.737,2.512,2.512,0,0,0-1.831-.722M309.55,42.09V61.315h4.3V36.332H307.9l-7.561,18.556L293,36.332H286.81V61.315h4.039V42.088h.139l7.748,19.227h3.048l7.628-19.225h.139Z" transform="translate(-232.624 -27.984)" fill="#cbcbcb"/>
  <path id="Path_17" data-name="Path 17" d="M19.812,19.812H0V0H19.812Z" fill="#cbcbcb"/>
  <path id="Path_18" data-name="Path 18" d="M135.6,19.812H115.788V0H135.6Z" transform="translate(-93.913)" fill="#cbcbcb"/>
  <path id="Path_19" data-name="Path 19" d="M19.812,135.64H0V115.828H19.812Z" transform="translate(0 -93.945)" fill="#cbcbcb"/>
  <path id="Path_20" data-name="Path 20" d="M135.6,135.64H115.788V115.828H135.6Z" transform="translate(-93.913 -93.945)" fill="#cbcbcb"/>
</svg>
