<svg xmlns="http://www.w3.org/2000/svg" width="147.146" height="42.023" viewBox="0 0 147.146 42.023">
  <g id="shopify-2" transform="translate(0 -0.098)">
    <path id="Path_12" data-name="Path 12" d="M16.661,1.428c.295,0,.442.147.737.295-1.769.737-3.539,2.654-4.423,6.782L9.731,9.39C10.763,6.441,12.827,1.428,16.661,1.428ZM18.283,2.9a10.281,10.281,0,0,1,.59,3.539v.295L14.6,7.915C15.481,4.819,16.956,3.492,18.283,2.9Zm3.833,2.654-1.917.59V5.7a10.133,10.133,0,0,0-.442-3.244C20.789,2.755,21.674,4.082,22.116,5.556ZM31.7,7.915A.317.317,0,0,0,31.4,7.62c-.295,0-3.391-.295-3.391-.295S25.8,5.114,25.507,4.966c-.295-.295-.737-.147-.885-.147,0,0-.442.147-1.18.442C22.706,3.2,21.379,1.28,19.167,1.28H19.02A2.607,2.607,0,0,0,16.808.1C11.5-.047,8.994,6.588,8.109,9.979c-1.18.295-2.359.737-3.686,1.18-1.18.295-1.18.442-1.327,1.474C2.949,13.37,0,36.666,0,36.666l23.443,4.423,12.68-2.8S31.7,8.21,31.7,7.915Z" transform="translate(0 0)" fill="#cbcbcb"/>
    <path id="Path_13" data-name="Path 13" d="M23.714,6.1c-.147,0-3.244-.295-3.244-.295s-2.212-2.212-2.506-2.359c-.147-.147-.147-.147-.295-.147L15.9,39.571l12.68-2.8S24.157,6.691,24.157,6.4c0-.147-.295-.295-.442-.295" transform="translate(7.543 1.519)" fill="#cbcbcb"/>
    <path id="Path_14" data-name="Path 14" d="M17.412,10.2,15.79,14.914a6.991,6.991,0,0,0-3.1-.737c-2.506,0-2.654,1.474-2.654,1.917,0,2.064,5.6,2.949,5.6,7.962,0,3.981-2.506,6.487-5.9,6.487A8.1,8.1,0,0,1,3.7,28.036L4.732,24.5S6.8,26.267,8.566,26.267a1.539,1.539,0,0,0,1.622-1.622c0-2.8-4.571-2.949-4.571-7.519,0-3.833,2.8-7.519,8.257-7.519a5.856,5.856,0,0,1,3.539.59" transform="translate(1.755 4.501)" fill="#cbcbcb"/>
    <path id="Path_15" data-name="Path 15" d="M37.494,20.834c-1.327-.737-1.917-1.327-1.917-2.064,0-1.032.885-1.622,2.359-1.622a7.839,7.839,0,0,1,3.1.737l1.18-3.539s-1.032-.885-4.128-.885c-4.423,0-7.372,2.506-7.372,6.045,0,2.064,1.474,3.539,3.244,4.571,1.474.885,2.064,1.474,2.064,2.359s-.737,1.769-2.212,1.769a10.675,10.675,0,0,1-4.128-1.032L28.5,30.712a9.331,9.331,0,0,0,4.866,1.18c4.423,0,7.667-2.212,7.667-6.193,0-2.212-1.622-3.833-3.539-4.866m17.84-7.519a6.7,6.7,0,0,0-5.308,2.654h0L51.943,5.942H46.93L42.065,31.45h5.013l1.622-8.7c.59-3.244,2.359-5.308,3.981-5.308,1.18,0,1.622.737,1.622,1.917a11.16,11.16,0,0,1-.147,2.212L52.238,31.6h5.013l1.917-10.321a26.481,26.481,0,0,0,.295-3.244c0-2.949-1.474-4.718-4.128-4.718m12.827,14.6c-1.769,0-2.359-1.474-2.359-3.244,0-2.8,1.474-7.519,4.128-7.519,1.769,0,2.359,1.474,2.359,2.949C72.29,23.34,70.816,27.911,68.162,27.911Zm2.506-14.6c-6.045,0-10.026,5.455-10.026,11.5,0,3.833,2.359,6.93,6.93,6.93,5.9,0,9.879-5.308,9.879-11.5C77.45,16.706,75.386,13.314,70.668,13.314ZM85.412,28.058a3.052,3.052,0,0,1-2.064-.737l.885-4.718c.59-3.1,2.212-5.16,3.981-5.16,1.474,0,2.064,1.474,2.064,2.8C90.13,23.488,88.214,28.058,85.412,28.058Zm4.866-14.744a6.861,6.861,0,0,0-5.308,2.949h0l.295-2.654H80.842a61.037,61.037,0,0,1-1.032,6.635L76.271,38.527h5.013l1.327-7.372h.147a6.367,6.367,0,0,0,2.949.59c5.9,0,9.731-6.045,9.731-12.09C95.438,16.411,93.964,13.314,90.278,13.314Zm12.238-7.077a2.835,2.835,0,0,0-2.8,2.949,2.285,2.285,0,0,0,2.359,2.506h0a2.784,2.784,0,0,0,2.949-2.949,2.4,2.4,0,0,0-2.506-2.506M95.586,31.45H100.6l3.391-17.693H98.977ZM116.67,13.757h-3.539l.147-.885c.295-1.769,1.327-3.244,2.949-3.244a4.867,4.867,0,0,1,1.622.295l1.032-3.981a6.421,6.421,0,0,0-2.654-.442,7.2,7.2,0,0,0-4.866,1.622,9.493,9.493,0,0,0-2.949,5.6l-.147.885h-2.359l-.737,3.833h2.359L104.874,31.45h5.013l2.654-14.007h3.391Zm11.943,0s-3.1,7.814-4.571,12.09h0c-.147-1.327-1.18-12.09-1.18-12.09h-5.308L120.5,29.975a1.87,1.87,0,0,1-.147.885,8.515,8.515,0,0,1-2.654,2.949,10.346,10.346,0,0,1-2.8,1.474l1.327,4.276a10.7,10.7,0,0,0,4.866-2.654c2.212-2.064,4.423-5.455,6.487-9.879L133.626,13.9Z" transform="translate(13.521 2.563)" fill="#cbcbcb"/>
  </g>
</svg>
