<svg xmlns="http://www.w3.org/2000/svg" width="107.969" height="35.354" viewBox="0 0 107.969 35.354">
  <g id="coca-cola_1_" data-name="coca-cola (1)" transform="translate(-0.001 0.001)">
    <path id="Path_21" data-name="Path 21" d="M41.462,30.839c-4.018-2.588-9.47-3.042-18.263-.6-9.374,2.2-12.5,3.615-16.6.78-1.577-1.393-2.142-3.635-1.72-6.864C5.854,18.888,8.5,13.821,13.2,8.2c2.623-2.924,5.057-5.432,8.27-6.44,2.463-.632,2.233,1.3,1.935,1.58a2.383,2.383,0,0,0-1.251.316,3.24,3.24,0,0,0-1.29,2.2c-.07,1.709,1.7,1.353,2.46.415.822-1.057,2.037-3.082,1.081-4.968A2.808,2.808,0,0,0,22.454.013C19.512-.155,16.772,1.248,14.243,2.8A35.881,35.881,0,0,0,1.784,17.792C.34,21.308-.965,26.345.991,30.445,2.505,33.289,5.647,34.8,9.4,34.484a66.238,66.238,0,0,0,7.948-1.639c2.139-.514,13.085-4.277,16.682,2.272a4.858,4.858,0,0,1,4.185-2.371A13.773,13.773,0,0,1,46.8,35.353,21.832,21.832,0,0,0,41.462,30.839Z" transform="translate(0 0)" fill="#cbcbcb"/>
    <path id="Path_22" data-name="Path 22" d="M97.285,8.952c-2.047-1.343-6.162,1.225-9.458,5.63-3.014,3.951-4.315,8.544-2.9,10.667,2.107,2.5,6.018-1.136,7.681-3.081l.215-.227a24.252,24.252,0,0,0,2.851-4.08s.777-1.284.814-1.343c.48-.089,1.059-.227,1.711-.415-.009.029-2.5,4.208-2.241,6.281.079.633.019,2.944,2.275,3.645,3.007.5,5.409-1.827,7.528-3.9,0,0,.361-.345.565-.543-.052.207-.119.483-.119.483-.88,3.062.306,3.7,1.049,3.942,2.244.652,4.924-2.607,4.933-2.607-.07,1.027-.273,1.876.81,2.558a3.284,3.284,0,0,0,2.841-.715c2.831-2,5.111-5.118,6.953-7.817h-1.175c-.014,0-2.9,4.182-4.773,5.091,0,0-.344.175-.54.037-.243-.207-.147-.639,0-.944.009-.02,7.235-12.551,7.235-12.551h-3.411s-.373.6-.4.642c-.023-.02-.078-.123-.115-.173-2.114-2.924-6.9,1.573-10.5,6.788a34.248,34.248,0,0,1-4.985,5.893s-2.713,2.487-3.872.7a3.449,3.449,0,0,1-.054-2.569,21.355,21.355,0,0,1,6.322-9.433,1.975,1.975,0,0,1,1.962-.5.856.856,0,0,1,.2,1.175,1.9,1.9,0,0,0-1.512.582,2.349,2.349,0,0,0-.814,2.381c1.222,1.738,3.658-1.7,3.54-3.793a2.248,2.248,0,0,0-1.04-1.808,3.587,3.587,0,0,0-3.129.03,13.939,13.939,0,0,0-4.129,3.2c-1.37,1.511-3.719,3.19-4.453,3,.24-.642,2.224-4.7.137-6.222Zm16.447,6.005a47.279,47.279,0,0,1,3.066-3.793c1.584-1.393,2.217-.78,2.271-.346-1.478,2.647-3.222,5.679-4.862,8.406,0-.01-.513.78-.513.78a7.563,7.563,0,0,1-2.643,2.716.767.767,0,0,1-.635-.069.673.673,0,0,1-.287-.652c.071-.849.936-3.446,3.6-7.042Zm-18.558,1.59s-.03.089-.044.118c0,0-1.487,2.42-1.487,2.42A11.381,11.381,0,0,1,90.231,22.5c-.414.138-.987.227-1.279-.138-.619-.741-.3-1.768-.041-2.6l.092-.3a24.57,24.57,0,0,1,3.068-5.442.151.151,0,0,1,.058-.02.08.08,0,0,1,.009.03,4.924,4.924,0,0,0,3.078,2.321c.006,0,.013.01.013.03A.486.486,0,0,1,95.173,16.547Zm1.405-2.854c-.007.02-.661,1.521-.661,1.521-.095.079-.244.04-.416,0l-.294-.05a2.637,2.637,0,0,1-1.832-1.63c-.3-1.422.919-2.538,1.455-2.943a1.62,1.62,0,0,1,1.776-.178A1.865,1.865,0,0,1,97,11.658,6.76,6.76,0,0,1,96.579,13.693ZM139.7,18.276a2.008,2.008,0,0,0-1.942-1.116c-2.7.247-5.346,2.469-6.734,5.659a16.247,16.247,0,0,0-1.386,5.146,14.238,14.238,0,0,1,4.5-3.427,9.363,9.363,0,0,1,1.614-3.9c.511-.761,1.533-1.985,2.68-1.66,1,.336.65,3.112-.682,5.8a18.627,18.627,0,0,1-4.022,5.314c-1.35,1.146-3.347,2.529-5.094,1.462a3.838,3.838,0,0,1-1.543-3.773c.526-4.988,2.8-9.235,6.046-14.075,3.35-4.494,7.043-9.107,12.018-11.567a3.358,3.358,0,0,1,2.767-.316,18.14,18.14,0,0,0-6.9,7.319c-.566,1.205-1.354,2.834-.561,4.277a1.667,1.667,0,0,0,1.743.77c2.729-.632,4.492-3.181,5.932-5.511a12.853,12.853,0,0,0,1.577-5.482c0-.237-.012-.553-.032-.79,1.3-.691,3.977.533,3.977.533,2.089.692,6.537,4.1,8.038,4.751.732-.849,1.935-2.133,2.612-2.775l-.98-.6c-1.57-.958-3.229-1.867-4.862-2.766a9.724,9.724,0,0,0-8.264-.76c-.6.217-1.156.4-1.156.4-1.14-1.244-3.01-1.126-4.388-.79-4.955,1.422-9.555,4.889-14.488,10.9-3.626,4.712-5.875,8.781-7.074,12.8-.924,2.706-1.2,6.687,1.051,9.047,1.918,2,4.46,1.57,6.256.85,3.891-1.916,7.387-6.045,9.13-10.8.421-1.412.887-3.407.163-4.929Zm8.946-14.885c-.515,5.907-5.106,9.374-6.242,9.65-.688.138-1.863-.168-.814-2.647a16.485,16.485,0,0,1,7.01-7.625,1.512,1.512,0,0,1,.047.622Zm27.235.75a13.174,13.174,0,0,1-8.129,2c-.859.968-1.7,1.966-2.466,2.993,4.35,1.106,8.961-1.353,11.533-3.694A18.152,18.152,0,0,0,180.939.1,21.616,21.616,0,0,1,175.886,4.141ZM129.212,9.06h-3.24l-1.827,2.969h3.239Z" transform="translate(-72.969 -0.089)" fill="#cbcbcb"/>
    <path id="Path_23" data-name="Path 23" d="M511.56,33.714c-.348.237-.838.055-.655-.488a28.252,28.252,0,0,1,2.268-4.2l5.047-8.951h-3.457c-.164.27-.516.89-.516.89a4.747,4.747,0,0,0-.835-.987,3.04,3.04,0,0,0-2.938.2c-3.717,2.173-6.429,6.467-8.567,9.816,0,0-2.251,3.722-3.5,4-.976.079-.875-1.235-.833-1.541a25.09,25.09,0,0,1,2.136-6.223,47.792,47.792,0,0,0,5.706-4.662,57.139,57.139,0,0,0,7.945-9.216,7.879,7.879,0,0,1-1.175.128c-3.108,4.336-9.469,10.638-11.4,11.576C501.64,22,507.159,12.193,511.856,7.5l.739-.711c1.143-1.116,2.327-2.262,3.25-2.45.1-.01.223,0,.331.228a4.265,4.265,0,0,1-.654,2.242L515,7.877a12.067,12.067,0,0,0,1.221-.3,5.717,5.717,0,0,0,.954-3.654,1.048,1.048,0,0,0-.835-.879c-1.4-.267-2.928.77-4.157,1.61l-.05.029c-6.316,4.949-11.65,12.08-16.313,21.819a3.341,3.341,0,0,1-1.866.415,15.842,15.842,0,0,0,1.33-3.605,9.588,9.588,0,0,0,.1-1.195,2.514,2.514,0,0,0-.966-2.2,3.338,3.338,0,0,0-2.741.1c-3.333,1.383-5.824,4.8-7.622,7.615a16.7,16.7,0,0,0-2.2,5.9c-.188,1.718.195,2.825,1.172,3.378a3.269,3.269,0,0,0,2.766-.277c3.377-1.778,5.736-5.343,7.6-8.6a10.9,10.9,0,0,0,1.858-.237.047.047,0,0,1,.031.01c-.044.148-.441,1.333-.441,1.333-1.179,3.457-1.724,5.808-.61,7.2,1.591,1.966,4.225-.069,6.368-2.756-.46,3.22,1.209,3.724,2.481,3.477a10.19,10.19,0,0,0,3.845-2.756c-.243.938-.177,2.618,1.153,2.785a3.563,3.563,0,0,0,2.382-.752c2.83-1.541,6.218-6.676,7.1-8.16H516.4c-1.25,1.89-2.841,4.367-4.843,5.543Zm-25.4-.344a1.557,1.557,0,0,1-.245-.874c-.034-1.937,2.049-5.405,3.52-7.295h0a5.72,5.72,0,0,0,2.855,2.583c-1.046,2.331-4.635,7.324-6.133,5.585Zm6.724-6.628a2.928,2.928,0,0,1-2.2-2.153,2.959,2.959,0,0,1,1.612-3.052,1.616,1.616,0,0,1,1.449-.267,1.466,1.466,0,0,1,.523,1.3,7.914,7.914,0,0,1-.082.968l-.008.069a13.158,13.158,0,0,1-1.295,3.131ZM507,32.748s-.334.3-.334.3c-.475.425-.963.879-1.553.652a.591.591,0,0,1-.3-.445,7.688,7.688,0,0,1,1.051-3.437l.136-.287c1.526-2.548,3.3-5.551,5.905-7.635a1.468,1.468,0,0,1,1.418-.375.737.737,0,0,1,.25.484.819.819,0,0,1-.083.267c-.728,1.176-1.421,2.41-2.094,3.6A49.9,49.9,0,0,1,507,32.748Z" transform="translate(-416.785 -2.6)" fill="#cbcbcb"/>
  </g>
</svg>
